<mxfile host="app.diagrams.net" modified="2021-01-13T03:49:56.058Z" agent="5.0 (Macintosh; Intel Mac OS X 10_15_7) AppleWebKit/537.36 (KHTML, like Gecko) Chrome/87.0.4280.88 Safari/537.36" etag="sEq2D5o0cZQspZ7iXRcd" version="14.1.9" type="github">
  <diagram id="_UHiUaJMt8uoKAJdl_Bz" name="Page-1">
    <mxGraphModel dx="10183" dy="8508" grid="1" gridSize="10" guides="1" tooltips="1" connect="1" arrows="1" fold="1" page="1" pageScale="1" pageWidth="850" pageHeight="1100" math="0" shadow="0">
      <root>
        <mxCell id="0" />
        <mxCell id="1" parent="0" />
        <mxCell id="3_o5dSQ0XCuLC7GuIHa6-2" value="" style="group" vertex="1" connectable="0" parent="1">
          <mxGeometry x="2060" y="-830" width="1885" height="1520" as="geometry" />
        </mxCell>
        <mxCell id="3_o5dSQ0XCuLC7GuIHa6-3" value="Create Transaction" style="shape=umlFrame;whiteSpace=wrap;html=1;rounded=0;shadow=0;comic=0;labelBackgroundColor=none;strokeWidth=1;fontFamily=Verdana;fontSize=10;align=center;width=80;height=30;" vertex="1" parent="3_o5dSQ0XCuLC7GuIHa6-2">
          <mxGeometry width="1885" height="1520" as="geometry" />
        </mxCell>
        <mxCell id="3_o5dSQ0XCuLC7GuIHa6-4" value="UI" style="html=1;" vertex="1" parent="3_o5dSQ0XCuLC7GuIHa6-2">
          <mxGeometry x="290" y="65" width="110" height="50" as="geometry" />
        </mxCell>
        <mxCell id="3_o5dSQ0XCuLC7GuIHa6-5" value="Account" style="html=1;" vertex="1" parent="3_o5dSQ0XCuLC7GuIHa6-2">
          <mxGeometry x="510" y="65" width="110" height="50" as="geometry" />
        </mxCell>
        <mxCell id="3_o5dSQ0XCuLC7GuIHa6-6" value="DBOperator" style="html=1;" vertex="1" parent="3_o5dSQ0XCuLC7GuIHa6-2">
          <mxGeometry x="950" y="65" width="110" height="50" as="geometry" />
        </mxCell>
        <mxCell id="3_o5dSQ0XCuLC7GuIHa6-7" value="" style="html=1;points=[];perimeter=orthogonalPerimeter;" vertex="1" parent="3_o5dSQ0XCuLC7GuIHa6-2">
          <mxGeometry x="340" y="165" width="10" height="1300" as="geometry" />
        </mxCell>
        <mxCell id="3_o5dSQ0XCuLC7GuIHa6-8" value="" style="shape=umlLifeline;participant=umlActor;perimeter=lifelinePerimeter;whiteSpace=wrap;html=1;container=1;collapsible=0;recursiveResize=0;verticalAlign=top;spacingTop=36;outlineConnect=0;" vertex="1" parent="3_o5dSQ0XCuLC7GuIHa6-2">
          <mxGeometry x="130" y="65" width="20" height="1400" as="geometry" />
        </mxCell>
        <mxCell id="3_o5dSQ0XCuLC7GuIHa6-9" value="select Currency" style="html=1;verticalAlign=bottom;endArrow=block;" edge="1" parent="3_o5dSQ0XCuLC7GuIHa6-2">
          <mxGeometry x="20" y="-65" width="80" as="geometry">
            <mxPoint x="150" y="204.99999999999994" as="sourcePoint" />
            <mxPoint x="340" y="205.33999999999997" as="targetPoint" />
          </mxGeometry>
        </mxCell>
        <mxCell id="3_o5dSQ0XCuLC7GuIHa6-10" value="" style="endArrow=none;dashed=1;html=1;dashPattern=1 3;strokeWidth=2;entryX=0.5;entryY=1;entryDx=0;entryDy=0;" edge="1" parent="3_o5dSQ0XCuLC7GuIHa6-2" target="3_o5dSQ0XCuLC7GuIHa6-4">
          <mxGeometry x="20" y="-65" width="50" height="50" as="geometry">
            <mxPoint x="345" y="165" as="sourcePoint" />
            <mxPoint x="660" y="155" as="targetPoint" />
          </mxGeometry>
        </mxCell>
        <mxCell id="3_o5dSQ0XCuLC7GuIHa6-11" value="" style="endArrow=none;dashed=1;html=1;dashPattern=1 3;strokeWidth=2;entryX=0.5;entryY=1;entryDx=0;entryDy=0;exitX=0.467;exitY=-0.004;exitDx=0;exitDy=0;exitPerimeter=0;" edge="1" parent="3_o5dSQ0XCuLC7GuIHa6-2" source="3_o5dSQ0XCuLC7GuIHa6-27">
          <mxGeometry x="20" y="-65" width="50" height="50" as="geometry">
            <mxPoint x="564.8800000000001" y="205" as="sourcePoint" />
            <mxPoint x="564.8800000000001" y="115" as="targetPoint" />
          </mxGeometry>
        </mxCell>
        <mxCell id="3_o5dSQ0XCuLC7GuIHa6-12" value="" style="endArrow=none;dashed=1;html=1;dashPattern=1 3;strokeWidth=2;entryX=0.5;entryY=1;entryDx=0;entryDy=0;" edge="1" parent="3_o5dSQ0XCuLC7GuIHa6-2" source="3_o5dSQ0XCuLC7GuIHa6-85">
          <mxGeometry x="20" y="-65" width="50" height="50" as="geometry">
            <mxPoint x="1005" y="335" as="sourcePoint" />
            <mxPoint x="1004.71" y="115" as="targetPoint" />
          </mxGeometry>
        </mxCell>
        <mxCell id="3_o5dSQ0XCuLC7GuIHa6-13" value="" style="group" vertex="1" connectable="0" parent="3_o5dSQ0XCuLC7GuIHa6-2">
          <mxGeometry x="730" y="65" width="110" height="530" as="geometry" />
        </mxCell>
        <mxCell id="3_o5dSQ0XCuLC7GuIHa6-14" value="Service" style="html=1;" vertex="1" parent="3_o5dSQ0XCuLC7GuIHa6-13">
          <mxGeometry width="110" height="50" as="geometry" />
        </mxCell>
        <mxCell id="3_o5dSQ0XCuLC7GuIHa6-15" value="" style="endArrow=none;dashed=1;html=1;dashPattern=1 3;strokeWidth=2;entryX=0.5;entryY=1;entryDx=0;entryDy=0;" edge="1" parent="3_o5dSQ0XCuLC7GuIHa6-13" source="3_o5dSQ0XCuLC7GuIHa6-16">
          <mxGeometry width="50" height="50" relative="1" as="geometry">
            <mxPoint x="54.879999999999995" y="140" as="sourcePoint" />
            <mxPoint x="54.879999999999995" y="50" as="targetPoint" />
          </mxGeometry>
        </mxCell>
        <mxCell id="3_o5dSQ0XCuLC7GuIHa6-16" value="" style="html=1;points=[];perimeter=orthogonalPerimeter;" vertex="1" parent="3_o5dSQ0XCuLC7GuIHa6-13">
          <mxGeometry x="50" y="260" width="10" height="270" as="geometry" />
        </mxCell>
        <mxCell id="3_o5dSQ0XCuLC7GuIHa6-17" value="getTransactionFee()" style="html=1;verticalAlign=bottom;endArrow=block;" edge="1" parent="3_o5dSQ0XCuLC7GuIHa6-2">
          <mxGeometry x="20" y="5" width="80" as="geometry">
            <mxPoint x="360" y="334.99999999999994" as="sourcePoint" />
            <mxPoint x="550" y="335.34" as="targetPoint" />
          </mxGeometry>
        </mxCell>
        <mxCell id="3_o5dSQ0XCuLC7GuIHa6-18" value="&lt;span style=&quot;font-family: &amp;#34;helvetica&amp;#34; ; text-align: center&quot;&gt;Navigate to Currency Page&lt;/span&gt;" style="edgeStyle=orthogonalEdgeStyle;html=1;align=left;spacingLeft=2;endArrow=block;rounded=0;entryX=1;entryY=0;" edge="1" parent="3_o5dSQ0XCuLC7GuIHa6-2">
          <mxGeometry x="-1720" y="-135" as="geometry">
            <mxPoint x="350" y="225" as="sourcePoint" />
            <Array as="points">
              <mxPoint x="375" y="225" />
            </Array>
            <mxPoint x="355" y="245" as="targetPoint" />
            <mxPoint x="28" as="offset" />
          </mxGeometry>
        </mxCell>
        <mxCell id="3_o5dSQ0XCuLC7GuIHa6-19" value="toggle send tab" style="html=1;verticalAlign=bottom;endArrow=block;" edge="1" parent="3_o5dSQ0XCuLC7GuIHa6-2">
          <mxGeometry x="20" y="-5" width="80" as="geometry">
            <mxPoint x="150" y="265" as="sourcePoint" />
            <mxPoint x="340" y="265.3399999999999" as="targetPoint" />
          </mxGeometry>
        </mxCell>
        <mxCell id="3_o5dSQ0XCuLC7GuIHa6-20" value="&lt;span style=&quot;font-family: &amp;#34;helvetica&amp;#34; ; text-align: center&quot;&gt;Navigate to Transaction Page&lt;/span&gt;" style="edgeStyle=orthogonalEdgeStyle;html=1;align=left;spacingLeft=2;endArrow=block;rounded=0;entryX=1;entryY=0;" edge="1" parent="3_o5dSQ0XCuLC7GuIHa6-2">
          <mxGeometry x="-1720" y="-65" as="geometry">
            <mxPoint x="350" y="295" as="sourcePoint" />
            <Array as="points">
              <mxPoint x="375" y="295.01" />
              <mxPoint x="375" y="315.01" />
            </Array>
            <mxPoint x="355" y="315" as="targetPoint" />
            <mxPoint x="28" as="offset" />
          </mxGeometry>
        </mxCell>
        <mxCell id="3_o5dSQ0XCuLC7GuIHa6-21" value="" style="endArrow=none;html=1;startArrow=classic;startFill=1;endFill=0;" edge="1" parent="3_o5dSQ0XCuLC7GuIHa6-2">
          <mxGeometry x="-200" y="-5" as="geometry">
            <mxPoint x="360" y="495" as="sourcePoint" />
            <mxPoint x="550" y="495" as="targetPoint" />
          </mxGeometry>
        </mxCell>
        <mxCell id="3_o5dSQ0XCuLC7GuIHa6-22" value="success: slow, standard, fast fee" style="edgeLabel;resizable=0;html=1;align=center;verticalAlign=middle;" connectable="0" vertex="1" parent="3_o5dSQ0XCuLC7GuIHa6-21">
          <mxGeometry relative="1" as="geometry">
            <mxPoint y="9" as="offset" />
          </mxGeometry>
        </mxCell>
        <mxCell id="3_o5dSQ0XCuLC7GuIHa6-23" value="Agent" style="html=1;" vertex="1" parent="3_o5dSQ0XCuLC7GuIHa6-2">
          <mxGeometry x="1160" y="65" width="110" height="50" as="geometry" />
        </mxCell>
        <mxCell id="3_o5dSQ0XCuLC7GuIHa6-24" value="" style="endArrow=none;dashed=1;html=1;dashPattern=1 3;strokeWidth=2;entryX=0.5;entryY=1;entryDx=0;entryDy=0;" edge="1" parent="3_o5dSQ0XCuLC7GuIHa6-2" source="3_o5dSQ0XCuLC7GuIHa6-88">
          <mxGeometry x="230" y="-65" width="50" height="50" as="geometry">
            <mxPoint x="1215" y="335" as="sourcePoint" />
            <mxPoint x="1214.71" y="115" as="targetPoint" />
          </mxGeometry>
        </mxCell>
        <mxCell id="3_o5dSQ0XCuLC7GuIHa6-25" value="User" style="html=1;" vertex="1" parent="3_o5dSQ0XCuLC7GuIHa6-2">
          <mxGeometry x="1370" y="65" width="110" height="50" as="geometry" />
        </mxCell>
        <mxCell id="3_o5dSQ0XCuLC7GuIHa6-26" value="" style="endArrow=none;dashed=1;html=1;dashPattern=1 3;strokeWidth=2;entryX=0.5;entryY=1;entryDx=0;entryDy=0;exitX=0.5;exitY=1;exitDx=0;exitDy=0;" edge="1" parent="3_o5dSQ0XCuLC7GuIHa6-2" source="3_o5dSQ0XCuLC7GuIHa6-25" target="3_o5dSQ0XCuLC7GuIHa6-29">
          <mxGeometry x="439.46000000000004" y="-65" width="50" height="50" as="geometry">
            <mxPoint x="1425" y="135" as="sourcePoint" />
            <mxPoint x="1424.17" y="115" as="targetPoint" />
          </mxGeometry>
        </mxCell>
        <mxCell id="3_o5dSQ0XCuLC7GuIHa6-27" value="" style="html=1;points=[];perimeter=orthogonalPerimeter;" vertex="1" parent="3_o5dSQ0XCuLC7GuIHa6-2">
          <mxGeometry x="560" y="315" width="10" height="1150" as="geometry" />
        </mxCell>
        <mxCell id="3_o5dSQ0XCuLC7GuIHa6-28" value="input amount and select fee&amp;nbsp;&amp;nbsp;" style="html=1;verticalAlign=bottom;endArrow=block;" edge="1" parent="3_o5dSQ0XCuLC7GuIHa6-2">
          <mxGeometry x="-1720" y="209.86" width="80" as="geometry">
            <mxPoint x="149.99999999999955" y="734.6600000000001" as="sourcePoint" />
            <mxPoint x="339.99999999999955" y="735" as="targetPoint" />
            <mxPoint x="-15" y="-5" as="offset" />
          </mxGeometry>
        </mxCell>
        <mxCell id="3_o5dSQ0XCuLC7GuIHa6-29" value="" style="html=1;points=[];perimeter=orthogonalPerimeter;" vertex="1" parent="3_o5dSQ0XCuLC7GuIHa6-2">
          <mxGeometry x="1420" y="834.66" width="10" height="110" as="geometry" />
        </mxCell>
        <mxCell id="3_o5dSQ0XCuLC7GuIHa6-30" value="toggle next tab" style="html=1;verticalAlign=bottom;endArrow=block;" edge="1" parent="3_o5dSQ0XCuLC7GuIHa6-2">
          <mxGeometry x="-1720" y="239.86" width="80" as="geometry">
            <mxPoint x="150" y="764.66" as="sourcePoint" />
            <mxPoint x="340" y="765.0000000000001" as="targetPoint" />
            <mxPoint x="-15" y="-5" as="offset" />
          </mxGeometry>
        </mxCell>
        <mxCell id="3_o5dSQ0XCuLC7GuIHa6-31" value="&lt;span style=&quot;font-family: &amp;#34;helvetica&amp;#34; ; text-align: center&quot;&gt;Navigator to previewTransaction page&lt;/span&gt;" style="edgeStyle=orthogonalEdgeStyle;html=1;align=left;spacingLeft=2;endArrow=block;rounded=0;entryX=1;entryY=0;" edge="1" parent="3_o5dSQ0XCuLC7GuIHa6-2">
          <mxGeometry x="-1720" y="194.65999999999997" as="geometry">
            <mxPoint x="350" y="794.66" as="sourcePoint" />
            <Array as="points">
              <mxPoint x="375" y="794.67" />
              <mxPoint x="375" y="814.67" />
            </Array>
            <mxPoint x="355" y="814.66" as="targetPoint" />
            <mxPoint x="8" as="offset" />
          </mxGeometry>
        </mxCell>
        <mxCell id="3_o5dSQ0XCuLC7GuIHa6-32" value="toggle confirm tab" style="html=1;verticalAlign=bottom;endArrow=block;" edge="1" parent="3_o5dSQ0XCuLC7GuIHa6-2">
          <mxGeometry x="-1720" y="319.86" width="80" as="geometry">
            <mxPoint x="150" y="844.66" as="sourcePoint" />
            <mxPoint x="340" y="845.0000000000001" as="targetPoint" />
            <mxPoint x="-15" y="-5" as="offset" />
          </mxGeometry>
        </mxCell>
        <mxCell id="3_o5dSQ0XCuLC7GuIHa6-33" value="&lt;span style=&quot;font-family: &amp;#34;helvetica&amp;#34; ; text-align: center&quot;&gt;Navigate to TransactionList Page&lt;/span&gt;" style="edgeStyle=orthogonalEdgeStyle;html=1;align=left;spacingLeft=2;endArrow=block;rounded=0;entryX=1;entryY=0;" edge="1" parent="3_o5dSQ0XCuLC7GuIHa6-2">
          <mxGeometry x="-1720" y="984.66" as="geometry">
            <mxPoint x="350" y="1344.6599999999999" as="sourcePoint" />
            <Array as="points">
              <mxPoint x="375" y="1344.67" />
              <mxPoint x="375" y="1364.67" />
            </Array>
            <mxPoint x="355" y="1364.6599999999999" as="targetPoint" />
            <mxPoint x="28" as="offset" />
          </mxGeometry>
        </mxCell>
        <mxCell id="3_o5dSQ0XCuLC7GuIHa6-34" value="getTransactionFee()&lt;br&gt;(in sepecific time interval)" style="html=1;verticalAlign=bottom;endArrow=block;" edge="1" parent="3_o5dSQ0XCuLC7GuIHa6-2">
          <mxGeometry x="240" y="25" width="80" as="geometry">
            <mxPoint x="580" y="355" as="sourcePoint" />
            <mxPoint x="770" y="355.34000000000015" as="targetPoint" />
          </mxGeometry>
        </mxCell>
        <mxCell id="3_o5dSQ0XCuLC7GuIHa6-35" value="query()" style="html=1;verticalAlign=bottom;endArrow=block;" edge="1" parent="3_o5dSQ0XCuLC7GuIHa6-2">
          <mxGeometry x="460" y="45" width="80" as="geometry">
            <mxPoint x="800" y="375" as="sourcePoint" />
            <mxPoint x="990" y="375.34000000000015" as="targetPoint" />
          </mxGeometry>
        </mxCell>
        <mxCell id="3_o5dSQ0XCuLC7GuIHa6-36" value="null / &lt;font color=&quot;#858585&quot;&gt;success: slow, standard, fast fee&lt;/font&gt;" style="html=1;verticalAlign=bottom;endArrow=none;endFill=0;startArrow=block;startFill=1;" edge="1" parent="3_o5dSQ0XCuLC7GuIHa6-2">
          <mxGeometry x="-1790" y="424.5" width="80" as="geometry">
            <mxPoint x="800" y="384.5" as="sourcePoint" />
            <mxPoint x="990" y="384.84000000000015" as="targetPoint" />
            <mxPoint x="-5" y="20" as="offset" />
          </mxGeometry>
        </mxCell>
        <mxCell id="3_o5dSQ0XCuLC7GuIHa6-37" value="get()" style="html=1;verticalAlign=bottom;endArrow=block;" edge="1" parent="3_o5dSQ0XCuLC7GuIHa6-2">
          <mxGeometry x="460" y="114.5" width="80" as="geometry">
            <mxPoint x="800" y="444.5" as="sourcePoint" />
            <mxPoint x="1200" y="444.5" as="targetPoint" />
          </mxGeometry>
        </mxCell>
        <mxCell id="3_o5dSQ0XCuLC7GuIHa6-38" value="" style="endArrow=none;html=1;startArrow=classic;startFill=1;endFill=0;" edge="1" parent="3_o5dSQ0XCuLC7GuIHa6-2">
          <mxGeometry x="15" y="-25" as="geometry">
            <mxPoint x="580" y="475" as="sourcePoint" />
            <mxPoint x="770" y="475" as="targetPoint" />
          </mxGeometry>
        </mxCell>
        <mxCell id="3_o5dSQ0XCuLC7GuIHa6-39" value="success: slow, standard, fast fee" style="edgeLabel;resizable=0;html=1;align=center;verticalAlign=middle;" connectable="0" vertex="1" parent="3_o5dSQ0XCuLC7GuIHa6-38">
          <mxGeometry relative="1" as="geometry">
            <mxPoint y="9" as="offset" />
          </mxGeometry>
        </mxCell>
        <mxCell id="3_o5dSQ0XCuLC7GuIHa6-40" value="" style="endArrow=none;html=1;startArrow=classic;startFill=1;endFill=0;" edge="1" parent="3_o5dSQ0XCuLC7GuIHa6-2">
          <mxGeometry x="450" y="-45" as="geometry">
            <mxPoint x="800" y="455" as="sourcePoint" />
            <mxPoint x="1200" y="455" as="targetPoint" />
          </mxGeometry>
        </mxCell>
        <mxCell id="3_o5dSQ0XCuLC7GuIHa6-41" value="success: slow, standard, fast fee" style="edgeLabel;resizable=0;html=1;align=center;verticalAlign=middle;" connectable="0" vertex="1" parent="3_o5dSQ0XCuLC7GuIHa6-40">
          <mxGeometry relative="1" as="geometry">
            <mxPoint y="9" as="offset" />
          </mxGeometry>
        </mxCell>
        <mxCell id="3_o5dSQ0XCuLC7GuIHa6-42" value="NatureDevice" style="html=1;" vertex="1" parent="3_o5dSQ0XCuLC7GuIHa6-2">
          <mxGeometry x="1580" y="65" width="110" height="50" as="geometry" />
        </mxCell>
        <mxCell id="3_o5dSQ0XCuLC7GuIHa6-43" value="" style="endArrow=none;dashed=1;html=1;dashPattern=1 3;strokeWidth=2;entryX=0.5;entryY=1;entryDx=0;entryDy=0;exitX=0.5;exitY=1;exitDx=0;exitDy=0;" edge="1" parent="3_o5dSQ0XCuLC7GuIHa6-2" source="3_o5dSQ0XCuLC7GuIHa6-42" target="3_o5dSQ0XCuLC7GuIHa6-44">
          <mxGeometry x="649.46" y="-65" width="50" height="50" as="geometry">
            <mxPoint x="1635" y="135" as="sourcePoint" />
            <mxPoint x="1634.17" y="115" as="targetPoint" />
          </mxGeometry>
        </mxCell>
        <mxCell id="3_o5dSQ0XCuLC7GuIHa6-44" value="" style="html=1;points=[];perimeter=orthogonalPerimeter;" vertex="1" parent="3_o5dSQ0XCuLC7GuIHa6-2">
          <mxGeometry x="1630" y="665" width="10" height="80" as="geometry" />
        </mxCell>
        <mxCell id="3_o5dSQ0XCuLC7GuIHa6-45" value="" style="html=1;points=[];perimeter=orthogonalPerimeter;" vertex="1" parent="3_o5dSQ0XCuLC7GuIHa6-2">
          <mxGeometry x="1000" y="1284.6599999999999" width="10" height="80" as="geometry" />
        </mxCell>
        <mxCell id="3_o5dSQ0XCuLC7GuIHa6-46" value="" style="html=1;points=[];perimeter=orthogonalPerimeter;" vertex="1" parent="3_o5dSQ0XCuLC7GuIHa6-2">
          <mxGeometry x="780" y="795" width="10" height="670" as="geometry" />
        </mxCell>
        <mxCell id="3_o5dSQ0XCuLC7GuIHa6-47" value="prepareTransactions()" style="html=1;verticalAlign=bottom;endArrow=block;" edge="1" parent="3_o5dSQ0XCuLC7GuIHa6-2">
          <mxGeometry x="20" y="517.76" width="80" as="geometry">
            <mxPoint x="360" y="966.3299999999998" as="sourcePoint" />
            <mxPoint x="550" y="966.67" as="targetPoint" />
            <mxPoint as="offset" />
          </mxGeometry>
        </mxCell>
        <mxCell id="3_o5dSQ0XCuLC7GuIHa6-48" value="" style="endArrow=none;html=1;startArrow=classic;startFill=1;endFill=0;" edge="1" parent="3_o5dSQ0XCuLC7GuIHa6-2">
          <mxGeometry x="-200" y="774.66" as="geometry">
            <mxPoint x="370" y="1274.66" as="sourcePoint" />
            <mxPoint x="540" y="1274.66" as="targetPoint" />
          </mxGeometry>
        </mxCell>
        <mxCell id="3_o5dSQ0XCuLC7GuIHa6-49" value="success: transaction" style="edgeLabel;resizable=0;html=1;align=center;verticalAlign=middle;" connectable="0" vertex="1" parent="3_o5dSQ0XCuLC7GuIHa6-48">
          <mxGeometry relative="1" as="geometry">
            <mxPoint y="10" as="offset" />
          </mxGeometry>
        </mxCell>
        <mxCell id="3_o5dSQ0XCuLC7GuIHa6-50" value="" style="html=1;points=[];perimeter=orthogonalPerimeter;" vertex="1" parent="3_o5dSQ0XCuLC7GuIHa6-2">
          <mxGeometry x="1210" y="1164.6599999999999" width="10" height="90" as="geometry" />
        </mxCell>
        <mxCell id="3_o5dSQ0XCuLC7GuIHa6-51" value="prepareTransactions()" style="html=1;verticalAlign=bottom;endArrow=block;" edge="1" parent="3_o5dSQ0XCuLC7GuIHa6-2">
          <mxGeometry x="230" y="546.09" width="80" as="geometry">
            <mxPoint x="570" y="994.6599999999999" as="sourcePoint" />
            <mxPoint x="760" y="995" as="targetPoint" />
            <mxPoint as="offset" />
          </mxGeometry>
        </mxCell>
        <mxCell id="3_o5dSQ0XCuLC7GuIHa6-52" value="" style="group" vertex="1" connectable="0" parent="3_o5dSQ0XCuLC7GuIHa6-2">
          <mxGeometry x="830" y="1017.66" width="140" height="10" as="geometry" />
        </mxCell>
        <mxCell id="3_o5dSQ0XCuLC7GuIHa6-53" value="" style="endArrow=classic;html=1;" edge="1" parent="3_o5dSQ0XCuLC7GuIHa6-52">
          <mxGeometry x="-810" y="-480.00000000000557" as="geometry">
            <mxPoint as="sourcePoint" />
            <mxPoint x="140" as="targetPoint" />
          </mxGeometry>
        </mxCell>
        <mxCell id="3_o5dSQ0XCuLC7GuIHa6-54" value="query()" style="edgeLabel;resizable=0;html=1;align=center;verticalAlign=middle;" connectable="0" vertex="1" parent="3_o5dSQ0XCuLC7GuIHa6-53">
          <mxGeometry relative="1" as="geometry">
            <mxPoint y="-9.66" as="offset" />
          </mxGeometry>
        </mxCell>
        <mxCell id="3_o5dSQ0XCuLC7GuIHa6-55" value="" style="endArrow=none;html=1;startArrow=classic;startFill=1;endFill=0;" edge="1" parent="3_o5dSQ0XCuLC7GuIHa6-52">
          <mxGeometry x="-810" y="-480.00000000000557" as="geometry">
            <mxPoint y="10" as="sourcePoint" />
            <mxPoint x="140" y="10" as="targetPoint" />
          </mxGeometry>
        </mxCell>
        <mxCell id="3_o5dSQ0XCuLC7GuIHa6-56" value="success" style="edgeLabel;resizable=0;html=1;align=center;verticalAlign=middle;" connectable="0" vertex="1" parent="3_o5dSQ0XCuLC7GuIHa6-55">
          <mxGeometry relative="1" as="geometry">
            <mxPoint y="10" as="offset" />
          </mxGeometry>
        </mxCell>
        <mxCell id="3_o5dSQ0XCuLC7GuIHa6-57" value="" style="group" vertex="1" connectable="0" parent="3_o5dSQ0XCuLC7GuIHa6-2">
          <mxGeometry x="800" y="1214.6599999999999" width="400" height="10" as="geometry" />
        </mxCell>
        <mxCell id="3_o5dSQ0XCuLC7GuIHa6-58" value="" style="endArrow=classic;html=1;" edge="1" parent="3_o5dSQ0XCuLC7GuIHa6-57">
          <mxGeometry x="-700" y="-480" as="geometry">
            <mxPoint as="sourcePoint" />
            <mxPoint x="400" as="targetPoint" />
          </mxGeometry>
        </mxCell>
        <mxCell id="3_o5dSQ0XCuLC7GuIHa6-59" value="post()" style="edgeLabel;resizable=0;html=1;align=center;verticalAlign=middle;" connectable="0" vertex="1" parent="3_o5dSQ0XCuLC7GuIHa6-58">
          <mxGeometry relative="1" as="geometry">
            <mxPoint y="-9.66" as="offset" />
          </mxGeometry>
        </mxCell>
        <mxCell id="3_o5dSQ0XCuLC7GuIHa6-60" value="" style="endArrow=none;html=1;startArrow=classic;startFill=1;endFill=0;" edge="1" parent="3_o5dSQ0XCuLC7GuIHa6-57">
          <mxGeometry x="-700" y="-470" as="geometry">
            <mxPoint y="10" as="sourcePoint" />
            <mxPoint x="400" y="10" as="targetPoint" />
          </mxGeometry>
        </mxCell>
        <mxCell id="3_o5dSQ0XCuLC7GuIHa6-61" value="success" style="edgeLabel;resizable=0;html=1;align=center;verticalAlign=middle;" connectable="0" vertex="1" parent="3_o5dSQ0XCuLC7GuIHa6-60">
          <mxGeometry relative="1" as="geometry">
            <mxPoint y="10" as="offset" />
          </mxGeometry>
        </mxCell>
        <mxCell id="3_o5dSQ0XCuLC7GuIHa6-62" value="" style="group" vertex="1" connectable="0" parent="3_o5dSQ0XCuLC7GuIHa6-2">
          <mxGeometry x="360" y="864.66" width="1040" height="10" as="geometry" />
        </mxCell>
        <mxCell id="3_o5dSQ0XCuLC7GuIHa6-63" value="" style="endArrow=classic;html=1;" edge="1" parent="3_o5dSQ0XCuLC7GuIHa6-62">
          <mxGeometry x="-1819.9999999999998" y="-480" as="geometry">
            <mxPoint as="sourcePoint" />
            <mxPoint x="1040" as="targetPoint" />
          </mxGeometry>
        </mxCell>
        <mxCell id="3_o5dSQ0XCuLC7GuIHa6-64" value="verifyPassord()" style="edgeLabel;resizable=0;html=1;align=center;verticalAlign=middle;" connectable="0" vertex="1" parent="3_o5dSQ0XCuLC7GuIHa6-63">
          <mxGeometry relative="1" as="geometry">
            <mxPoint y="-9.66" as="offset" />
          </mxGeometry>
        </mxCell>
        <mxCell id="3_o5dSQ0XCuLC7GuIHa6-65" value="" style="endArrow=none;html=1;startArrow=classic;startFill=1;endFill=0;" edge="1" parent="3_o5dSQ0XCuLC7GuIHa6-62">
          <mxGeometry x="-1819.9999999999998" y="-470" as="geometry">
            <mxPoint y="10" as="sourcePoint" />
            <mxPoint x="1040" y="10" as="targetPoint" />
          </mxGeometry>
        </mxCell>
        <mxCell id="3_o5dSQ0XCuLC7GuIHa6-66" value="fail" style="edgeLabel;resizable=0;html=1;align=center;verticalAlign=middle;" connectable="0" vertex="1" parent="3_o5dSQ0XCuLC7GuIHa6-65">
          <mxGeometry relative="1" as="geometry">
            <mxPoint y="10" as="offset" />
          </mxGeometry>
        </mxCell>
        <mxCell id="3_o5dSQ0XCuLC7GuIHa6-67" value="" style="group" vertex="1" connectable="0" parent="3_o5dSQ0XCuLC7GuIHa6-2">
          <mxGeometry x="360" y="904.66" width="1040" height="10" as="geometry" />
        </mxCell>
        <mxCell id="3_o5dSQ0XCuLC7GuIHa6-68" value="" style="endArrow=classic;html=1;" edge="1" parent="3_o5dSQ0XCuLC7GuIHa6-67">
          <mxGeometry x="-1820" y="-480" as="geometry">
            <mxPoint as="sourcePoint" />
            <mxPoint x="1040" as="targetPoint" />
          </mxGeometry>
        </mxCell>
        <mxCell id="3_o5dSQ0XCuLC7GuIHa6-69" value="verifyPassord()" style="edgeLabel;resizable=0;html=1;align=center;verticalAlign=middle;" connectable="0" vertex="1" parent="3_o5dSQ0XCuLC7GuIHa6-68">
          <mxGeometry relative="1" as="geometry">
            <mxPoint y="-9.66" as="offset" />
          </mxGeometry>
        </mxCell>
        <mxCell id="3_o5dSQ0XCuLC7GuIHa6-70" value="" style="endArrow=none;html=1;startArrow=classic;startFill=1;endFill=0;" edge="1" parent="3_o5dSQ0XCuLC7GuIHa6-67">
          <mxGeometry x="-1820" y="-470" as="geometry">
            <mxPoint y="10" as="sourcePoint" />
            <mxPoint x="1040" y="10" as="targetPoint" />
          </mxGeometry>
        </mxCell>
        <mxCell id="3_o5dSQ0XCuLC7GuIHa6-71" value="success" style="edgeLabel;resizable=0;html=1;align=center;verticalAlign=middle;" connectable="0" vertex="1" parent="3_o5dSQ0XCuLC7GuIHa6-70">
          <mxGeometry relative="1" as="geometry">
            <mxPoint y="10" as="offset" />
          </mxGeometry>
        </mxCell>
        <mxCell id="3_o5dSQ0XCuLC7GuIHa6-72" value="" style="endArrow=none;html=1;startArrow=classic;startFill=1;endFill=0;" edge="1" parent="3_o5dSQ0XCuLC7GuIHa6-2">
          <mxGeometry x="20" y="548.66" as="geometry">
            <mxPoint x="590" y="1048.6599999999999" as="sourcePoint" />
            <mxPoint x="760" y="1048.6599999999999" as="targetPoint" />
          </mxGeometry>
        </mxCell>
        <mxCell id="3_o5dSQ0XCuLC7GuIHa6-73" value="success: transaction" style="edgeLabel;resizable=0;html=1;align=center;verticalAlign=middle;" connectable="0" vertex="1" parent="3_o5dSQ0XCuLC7GuIHa6-72">
          <mxGeometry relative="1" as="geometry">
            <mxPoint y="10" as="offset" />
          </mxGeometry>
        </mxCell>
        <mxCell id="3_o5dSQ0XCuLC7GuIHa6-74" value="signTransactions()" style="html=1;verticalAlign=bottom;endArrow=block;" edge="1" parent="3_o5dSQ0XCuLC7GuIHa6-2">
          <mxGeometry x="240" y="660.38" width="80" as="geometry">
            <mxPoint x="580" y="1108.9499999999998" as="sourcePoint" />
            <mxPoint x="770" y="1109.29" as="targetPoint" />
            <mxPoint as="offset" />
          </mxGeometry>
        </mxCell>
        <mxCell id="3_o5dSQ0XCuLC7GuIHa6-75" value="" style="endArrow=none;html=1;startArrow=classic;startFill=1;endFill=0;" edge="1" parent="3_o5dSQ0XCuLC7GuIHa6-2">
          <mxGeometry x="15" y="618.9499999999999" as="geometry">
            <mxPoint x="585" y="1118.9499999999998" as="sourcePoint" />
            <mxPoint x="755" y="1118.9499999999998" as="targetPoint" />
          </mxGeometry>
        </mxCell>
        <mxCell id="3_o5dSQ0XCuLC7GuIHa6-76" value="success: signedTransaction" style="edgeLabel;resizable=0;html=1;align=center;verticalAlign=middle;" connectable="0" vertex="1" parent="3_o5dSQ0XCuLC7GuIHa6-75">
          <mxGeometry relative="1" as="geometry">
            <mxPoint y="10" as="offset" />
          </mxGeometry>
        </mxCell>
        <mxCell id="3_o5dSQ0XCuLC7GuIHa6-77" value="publishTransactions()" style="html=1;verticalAlign=bottom;endArrow=block;" edge="1" parent="3_o5dSQ0XCuLC7GuIHa6-2">
          <mxGeometry x="240" y="730.38" width="80" as="geometry">
            <mxPoint x="580" y="1178.9499999999998" as="sourcePoint" />
            <mxPoint x="770" y="1179.29" as="targetPoint" />
            <mxPoint as="offset" />
          </mxGeometry>
        </mxCell>
        <mxCell id="3_o5dSQ0XCuLC7GuIHa6-78" value="" style="endArrow=none;html=1;startArrow=classic;startFill=1;endFill=0;" edge="1" parent="3_o5dSQ0XCuLC7GuIHa6-2">
          <mxGeometry x="20" y="744.66" as="geometry">
            <mxPoint x="590" y="1244.6599999999999" as="sourcePoint" />
            <mxPoint x="760" y="1244.6599999999999" as="targetPoint" />
          </mxGeometry>
        </mxCell>
        <mxCell id="3_o5dSQ0XCuLC7GuIHa6-79" value="success" style="edgeLabel;resizable=0;html=1;align=center;verticalAlign=middle;" connectable="0" vertex="1" parent="3_o5dSQ0XCuLC7GuIHa6-78">
          <mxGeometry relative="1" as="geometry">
            <mxPoint y="10" as="offset" />
          </mxGeometry>
        </mxCell>
        <mxCell id="3_o5dSQ0XCuLC7GuIHa6-80" value="" style="group" vertex="1" connectable="0" parent="3_o5dSQ0XCuLC7GuIHa6-2">
          <mxGeometry x="360" y="704.66" width="1260" height="10" as="geometry" />
        </mxCell>
        <mxCell id="3_o5dSQ0XCuLC7GuIHa6-81" value="" style="endArrow=classic;html=1;" edge="1" parent="3_o5dSQ0XCuLC7GuIHa6-80">
          <mxGeometry x="-2204.9999999999995" y="-480" as="geometry">
            <mxPoint as="sourcePoint" />
            <mxPoint x="1260" as="targetPoint" />
          </mxGeometry>
        </mxCell>
        <mxCell id="3_o5dSQ0XCuLC7GuIHa6-82" value="scanQRCode)" style="edgeLabel;resizable=0;html=1;align=center;verticalAlign=middle;" connectable="0" vertex="1" parent="3_o5dSQ0XCuLC7GuIHa6-81">
          <mxGeometry relative="1" as="geometry">
            <mxPoint y="-9.66" as="offset" />
          </mxGeometry>
        </mxCell>
        <mxCell id="3_o5dSQ0XCuLC7GuIHa6-83" value="" style="endArrow=none;html=1;startArrow=classic;startFill=1;endFill=0;" edge="1" parent="3_o5dSQ0XCuLC7GuIHa6-80">
          <mxGeometry x="-2204.9999999999995" y="-470" as="geometry">
            <mxPoint y="10" as="sourcePoint" />
            <mxPoint x="1260" y="10" as="targetPoint" />
          </mxGeometry>
        </mxCell>
        <mxCell id="3_o5dSQ0XCuLC7GuIHa6-84" value="success: address&amp;nbsp;" style="edgeLabel;resizable=0;html=1;align=center;verticalAlign=middle;" connectable="0" vertex="1" parent="3_o5dSQ0XCuLC7GuIHa6-83">
          <mxGeometry relative="1" as="geometry">
            <mxPoint y="10" as="offset" />
          </mxGeometry>
        </mxCell>
        <mxCell id="3_o5dSQ0XCuLC7GuIHa6-85" value="" style="html=1;points=[];perimeter=orthogonalPerimeter;" vertex="1" parent="3_o5dSQ0XCuLC7GuIHa6-2">
          <mxGeometry x="1000" y="325" width="10" height="80" as="geometry" />
        </mxCell>
        <mxCell id="3_o5dSQ0XCuLC7GuIHa6-86" value="" style="endArrow=none;dashed=1;html=1;dashPattern=1 3;strokeWidth=2;entryX=0.5;entryY=1;entryDx=0;entryDy=0;" edge="1" parent="3_o5dSQ0XCuLC7GuIHa6-2" source="3_o5dSQ0XCuLC7GuIHa6-98" target="3_o5dSQ0XCuLC7GuIHa6-85">
          <mxGeometry x="20" y="-65" width="50" height="50" as="geometry">
            <mxPoint x="1004.71" y="815" as="sourcePoint" />
            <mxPoint x="1004.71" y="115" as="targetPoint" />
          </mxGeometry>
        </mxCell>
        <mxCell id="3_o5dSQ0XCuLC7GuIHa6-87" value="" style="endArrow=none;dashed=1;html=1;dashPattern=1 3;strokeWidth=2;entryX=0.5;entryY=1;entryDx=0;entryDy=0;" edge="1" parent="3_o5dSQ0XCuLC7GuIHa6-2" source="3_o5dSQ0XCuLC7GuIHa6-46" target="3_o5dSQ0XCuLC7GuIHa6-16">
          <mxGeometry width="50" height="50" relative="1" as="geometry">
            <mxPoint x="3304.88" y="405" as="sourcePoint" />
            <mxPoint x="3304.88" y="-245" as="targetPoint" />
          </mxGeometry>
        </mxCell>
        <mxCell id="3_o5dSQ0XCuLC7GuIHa6-88" value="" style="html=1;points=[];perimeter=orthogonalPerimeter;" vertex="1" parent="3_o5dSQ0XCuLC7GuIHa6-2">
          <mxGeometry x="1210" y="405" width="10" height="80" as="geometry" />
        </mxCell>
        <mxCell id="3_o5dSQ0XCuLC7GuIHa6-89" value="" style="endArrow=none;dashed=1;html=1;dashPattern=1 3;strokeWidth=2;entryX=0.5;entryY=1;entryDx=0;entryDy=0;" edge="1" parent="3_o5dSQ0XCuLC7GuIHa6-2" source="3_o5dSQ0XCuLC7GuIHa6-50" target="3_o5dSQ0XCuLC7GuIHa6-88">
          <mxGeometry x="230" y="-65" width="50" height="50" as="geometry">
            <mxPoint x="1214.71" y="985" as="sourcePoint" />
            <mxPoint x="1214.71" y="115" as="targetPoint" />
          </mxGeometry>
        </mxCell>
        <mxCell id="3_o5dSQ0XCuLC7GuIHa6-90" value="" style="html=1;points=[];perimeter=orthogonalPerimeter;" vertex="1" parent="3_o5dSQ0XCuLC7GuIHa6-2">
          <mxGeometry x="1000" y="982.66" width="10" height="80" as="geometry" />
        </mxCell>
        <mxCell id="3_o5dSQ0XCuLC7GuIHa6-91" value="" style="endArrow=none;dashed=1;html=1;dashPattern=1 3;strokeWidth=2;entryX=0.5;entryY=1;entryDx=0;entryDy=0;" edge="1" parent="3_o5dSQ0XCuLC7GuIHa6-2" source="3_o5dSQ0XCuLC7GuIHa6-45" target="3_o5dSQ0XCuLC7GuIHa6-90">
          <mxGeometry x="20" y="114.65999999999997" width="50" height="50" as="geometry">
            <mxPoint x="1005" y="1254.6599999999999" as="sourcePoint" />
            <mxPoint x="1005" y="584.66" as="targetPoint" />
          </mxGeometry>
        </mxCell>
        <mxCell id="3_o5dSQ0XCuLC7GuIHa6-92" value="&lt;font color=&quot;#858585&quot;&gt;success: slow, standard, fast fee&lt;/font&gt;" style="html=1;verticalAlign=bottom;endArrow=none;endFill=0;startArrow=block;startFill=1;strokeColor=#858585;" edge="1" parent="3_o5dSQ0XCuLC7GuIHa6-2">
          <mxGeometry x="-2010" y="444" width="80" as="geometry">
            <mxPoint x="580" y="404" as="sourcePoint" />
            <mxPoint x="770" y="404.34000000000015" as="targetPoint" />
            <mxPoint x="-5" y="20" as="offset" />
          </mxGeometry>
        </mxCell>
        <mxCell id="3_o5dSQ0XCuLC7GuIHa6-93" value="" style="group" vertex="1" connectable="0" parent="3_o5dSQ0XCuLC7GuIHa6-2">
          <mxGeometry x="830" y="1314.6599999999999" width="140" height="10" as="geometry" />
        </mxCell>
        <mxCell id="3_o5dSQ0XCuLC7GuIHa6-94" value="" style="endArrow=classic;html=1;" edge="1" parent="3_o5dSQ0XCuLC7GuIHa6-93">
          <mxGeometry x="-810" y="-480.00000000000557" as="geometry">
            <mxPoint as="sourcePoint" />
            <mxPoint x="140" as="targetPoint" />
          </mxGeometry>
        </mxCell>
        <mxCell id="3_o5dSQ0XCuLC7GuIHa6-95" value="create() : transaction" style="edgeLabel;resizable=0;html=1;align=center;verticalAlign=middle;" connectable="0" vertex="1" parent="3_o5dSQ0XCuLC7GuIHa6-94">
          <mxGeometry relative="1" as="geometry">
            <mxPoint y="-9.66" as="offset" />
          </mxGeometry>
        </mxCell>
        <mxCell id="3_o5dSQ0XCuLC7GuIHa6-96" value="" style="endArrow=none;html=1;startArrow=classic;startFill=1;endFill=0;" edge="1" parent="3_o5dSQ0XCuLC7GuIHa6-93">
          <mxGeometry x="-810" y="-480.00000000000557" as="geometry">
            <mxPoint y="10" as="sourcePoint" />
            <mxPoint x="140" y="10" as="targetPoint" />
          </mxGeometry>
        </mxCell>
        <mxCell id="3_o5dSQ0XCuLC7GuIHa6-97" value="success" style="edgeLabel;resizable=0;html=1;align=center;verticalAlign=middle;" connectable="0" vertex="1" parent="3_o5dSQ0XCuLC7GuIHa6-96">
          <mxGeometry relative="1" as="geometry">
            <mxPoint y="10" as="offset" />
          </mxGeometry>
        </mxCell>
        <mxCell id="3_o5dSQ0XCuLC7GuIHa6-98" value="" style="html=1;points=[];perimeter=orthogonalPerimeter;" vertex="1" parent="3_o5dSQ0XCuLC7GuIHa6-2">
          <mxGeometry x="1000" y="515" width="10" height="80" as="geometry" />
        </mxCell>
        <mxCell id="3_o5dSQ0XCuLC7GuIHa6-99" value="" style="endArrow=none;dashed=1;html=1;dashPattern=1 3;strokeWidth=2;entryX=0.5;entryY=1;entryDx=0;entryDy=0;" edge="1" parent="3_o5dSQ0XCuLC7GuIHa6-2" source="3_o5dSQ0XCuLC7GuIHa6-90" target="3_o5dSQ0XCuLC7GuIHa6-98">
          <mxGeometry x="20" y="-65" width="50" height="50" as="geometry">
            <mxPoint x="1005" y="982.6599999999999" as="sourcePoint" />
            <mxPoint x="1005" y="405" as="targetPoint" />
          </mxGeometry>
        </mxCell>
        <mxCell id="3_o5dSQ0XCuLC7GuIHa6-100" value="update()" style="html=1;verticalAlign=bottom;endArrow=block;" edge="1" parent="3_o5dSQ0XCuLC7GuIHa6-2">
          <mxGeometry x="465" y="215" width="80" as="geometry">
            <mxPoint x="805" y="545" as="sourcePoint" />
            <mxPoint x="995" y="545.3400000000001" as="targetPoint" />
          </mxGeometry>
        </mxCell>
        <mxCell id="3_o5dSQ0XCuLC7GuIHa6-101" value="success" style="html=1;verticalAlign=bottom;endArrow=none;endFill=0;startArrow=block;startFill=1;" edge="1" parent="3_o5dSQ0XCuLC7GuIHa6-2">
          <mxGeometry x="-1785" y="594.83" width="80" as="geometry">
            <mxPoint x="805" y="554.83" as="sourcePoint" />
            <mxPoint x="995" y="555.1700000000002" as="targetPoint" />
            <mxPoint x="-5" y="20" as="offset" />
          </mxGeometry>
        </mxCell>
      </root>
    </mxGraphModel>
  </diagram>
</mxfile>
